<?xml version="1.0" encoding="UTF-8"?>
<svg version="1.1" viewBox="0 0 1024 1024" width="1280" height="1280" xmlns="http://www.w3.org/2000/svg">
<path transform="translate(0)" d="m0 0h1024v1024h-1024z" fill="#0a192f"/>
<path transform="translate(597,322)" d="m0 0h10v118h-10l-2-6-3-18-6-18-8-14-8-10-10-9-14-8-16-5-14-2h-9l-14 2-17 7-11 8-8 8-6 10-4 13v16l4 11 8 11 4 5 14 11 15 10 14 8 27 16 24 14 19 12 10 8 10 9 8 8 10 14 7 15 4 15 1 7v17l-3 17-6 16-10 16-16 16-10 7-15 8-15 5-22 4h-23l-26-5-27-8-9-3-13-1-8 2-7 8-2 4-3 1h-7l-1-1v-43l2-72h10l2 9 2 13 6 18 9 16 14 15 15 10 15 6 18 4 5 1h21l15-3 15-6 12-8 10-10 7-11 4-12 1-7v-14l-3-12-6-10-8-10-14-11-47-29-32-19-19-12-9-7-11-9-7-7-11-16-5-10-3-9-2-13v-9l2-16 5-15 7-13 7-9 9-10 11-9 14-8 18-6 12-2h31l19 4 30 8h8l8-3 4-5z" fill="#ccd6f6"/>
<path transform="translate(716,285)" d="m0 0 55 2 17 4 14 7 5 4 8 12 4 11 4 22 1 9 1 35-1 67 4 16 6 8 7 6 8 4 14 4 12 2v7l-5 2-16 3-12 5-9 7-6 10-2 7v130l-3 20-6 16-8 11-8 6-10 5-14 4-12 2h-48v-12l7-1 19-1 16-4 11-6 6-7 4-10 3-13 2-20 1-12 1-100 4-15 6-11 8-9 10-6 8-3h3v-2l-11-3-10-6-10-10-6-13-2-8-1-108-3-18-7-14-7-8-10-6-13-5-17-3-11-1-1-1z" fill="#ccd6f6"/>
<path transform="translate(300,285)" d="m0 0h8v12l-1 1-23 3-14 4-11 6-8 7-6 10-4 11-2 15-1 107-4 13-6 10-9 9-12 6-7 2-1 2 10 2 11 6 5 4 6 9 4 12 3 20 1 94 2 26 4 16 6 12 5 5 6 4 16 5 5 1 20 1 5 1v12h-48l-19-4-13-5-9-6-8-8-6-12-4-14-2-16v-128l-4-12-6-8-11-7-13-4-16-3v-8l1-1 17-2 14-4 9-6 4-5 4-10 1-4v-86l1-25 3-21 4-15 6-12 5-6 11-7 14-5 10-2z" fill="#ccd6f6"/>
</svg>
